HIERARCHY
ROOT Hips
{
	OFFSET 0.000000 97.167313 0.000000
	CHANNELS 6 Xposition Yposition Zposition Xrotation Yrotation Zrotation
	JOINT Spine
	{
		OFFSET 0.000000 13.784798 0.064400
		CHANNELS 3 Xrotation Yrotation Zrotation
		JOINT Spine1
		{
			OFFSET 0.000000 12.037903 0.404700
			CHANNELS 3 Xrotation Yrotation Zrotation
			JOINT Spine2
			{
				OFFSET 0.000000 17.795601 0.420200
				CHANNELS 3 Xrotation Yrotation Zrotation
				JOINT Neck
				{
					OFFSET 0.000000 39.131302 11.954600
					CHANNELS 3 Xrotation Yrotation Zrotation
					JOINT Head
					{
						OFFSET 0.000000 14.456192 15.627699
						CHANNELS 3 Xrotation Yrotation Zrotation
						JOINT HeadTop_End
						{
							OFFSET 0.000000 15.703506 7.603401
							CHANNELS 3 Xrotation Yrotation Zrotation
							End Site
							{
								OFFSET 0.000000 17.447403 0.000000
							}
						}
					}
				}
				JOINT LeftShoulder
				{
					OFFSET 17.399500 24.608795 1.168800
					CHANNELS 3 Xrotation Yrotation Zrotation
					JOINT LeftArm
					{
						OFFSET 18.980635 5.765305 1.818600
						CHANNELS 3 Xrotation Yrotation Zrotation
						JOINT LeftForeArm
						{
							OFFSET 49.290169 0.000000 0.000000
							CHANNELS 3 Xrotation Yrotation Zrotation
							JOINT LeftHand
							{
								OFFSET 31.562012 0.000000 0.000000
								CHANNELS 3 Xrotation Yrotation Zrotation
								JOINT LeftHandThumb1
								{
									OFFSET 6.133995 -4.388519 7.076070
									CHANNELS 3 Xrotation Yrotation Zrotation
									JOINT LeftHandThumb2
									{
										OFFSET 6.037666 -3.485840 3.485847
										CHANNELS 3 Xrotation Yrotation Zrotation
										JOINT LeftHandThumb3
										{
											OFFSET 6.496506 -3.750763 3.750761
											CHANNELS 3 Xrotation Yrotation Zrotation
											JOINT LeftHandThumb4
											{
												OFFSET 5.616882 -3.242905 3.242910
												CHANNELS 3 Xrotation Yrotation Zrotation
												End Site
												{
													OFFSET -1.254608 7.132141 0.375429
												}
											}
										}
									}
								}
								JOINT LeftHandPinky1
								{
									OFFSET 18.920792 -0.453171 -11.426712
									CHANNELS 3 Xrotation Yrotation Zrotation
									JOINT LeftHandPinky2
									{
										OFFSET 4.919586 0.000000 0.000000
										CHANNELS 3 Xrotation Yrotation Zrotation
										JOINT LeftHandPinky3
										{
											OFFSET 5.233047 0.000000 0.000000
											CHANNELS 3 Xrotation Yrotation Zrotation
											JOINT LeftHandPinky4
											{
												OFFSET 5.571716 0.000000 0.000000
												CHANNELS 3 Xrotation Yrotation Zrotation
												End Site
												{
													OFFSET -3.459808 4.342407 -0.466164
												}
											}
										}
									}
								}
								JOINT LeftHandRing1
								{
									OFFSET 22.726120 -0.094986 -6.500475
									CHANNELS 3 Xrotation Yrotation Zrotation
									JOINT LeftHandRing2
									{
										OFFSET 6.408615 0.000000 0.000000
										CHANNELS 3 Xrotation Yrotation Zrotation
										JOINT LeftHandRing3
										{
											OFFSET 6.150223 0.000000 0.000000
											CHANNELS 3 Xrotation Yrotation Zrotation
											JOINT LeftHandRing4
											{
												OFFSET 6.145386 0.000000 0.000000
												CHANNELS 3 Xrotation Yrotation Zrotation
												End Site
												{
													OFFSET -3.671402 4.923981 -0.202372
												}
											}
										}
									}
								}
								JOINT LeftHandMiddle1
								{
									OFFSET 23.373947 0.000000 0.000001
									CHANNELS 3 Xrotation Yrotation Zrotation
									JOINT LeftHandMiddle2
									{
										OFFSET 6.996567 0.000000 0.000000
										CHANNELS 3 Xrotation Yrotation Zrotation
										JOINT LeftHandMiddle3
										{
											OFFSET 7.015945 0.000000 0.000000
											CHANNELS 3 Xrotation Yrotation Zrotation
											JOINT LeftHandMiddle4
											{
												OFFSET 7.721573 0.000000 0.000000
												CHANNELS 3 Xrotation Yrotation Zrotation
												End Site
												{
													OFFSET -4.651108 6.158463 0.251582
												}
											}
										}
									}
								}
								JOINT LeftHandIndex1
								{
									OFFSET 21.310577 -0.490082 6.209344
									CHANNELS 3 Xrotation Yrotation Zrotation
									JOINT LeftHandIndex2
									{
										OFFSET 7.536453 0.000000 0.000000
										CHANNELS 3 Xrotation Yrotation Zrotation
										JOINT LeftHandIndex3
										{
											OFFSET 7.512344 0.000000 0.000000
											CHANNELS 3 Xrotation Yrotation Zrotation
											JOINT LeftHandIndex4
											{
												OFFSET 10.212402 0.000000 0.000001
												CHANNELS 3 Xrotation Yrotation Zrotation
												End Site
												{
													OFFSET -5.180801 8.690506 1.388433
												}
											}
										}
									}
								}
							}
						}
					}
				}
				JOINT RightShoulder
				{
					OFFSET -17.399500 24.608795 1.168800
					CHANNELS 3 Xrotation Yrotation Zrotation
					JOINT RightArm
					{
						OFFSET -18.980635 5.765305 1.818600
						CHANNELS 3 Xrotation Yrotation Zrotation
						JOINT RightForeArm
						{
							OFFSET -49.290169 0.000000 0.000000
							CHANNELS 3 Xrotation Yrotation Zrotation
							JOINT RightHand
							{
								OFFSET -31.562012 0.000000 0.000000
								CHANNELS 3 Xrotation Yrotation Zrotation
								JOINT RightHandThumb1
								{
									OFFSET -6.133995 -4.388519 7.076070
									CHANNELS 3 Xrotation Yrotation Zrotation
									JOINT RightHandThumb2
									{
										OFFSET -6.037666 -3.485840 3.485847
										CHANNELS 3 Xrotation Yrotation Zrotation
										JOINT RightHandThumb3
										{
											OFFSET -6.496506 -3.750763 3.750761
											CHANNELS 3 Xrotation Yrotation Zrotation
											JOINT RightHandThumb4
											{
												OFFSET -5.616882 -3.242905 3.242910
												CHANNELS 3 Xrotation Yrotation Zrotation
												End Site
												{
													OFFSET 1.254608 7.132141 0.375429
												}
											}
										}
									}
								}
								JOINT RightHandIndex1
								{
									OFFSET -21.310577 -0.490082 6.209344
									CHANNELS 3 Xrotation Yrotation Zrotation
									JOINT RightHandIndex2
									{
										OFFSET -7.536453 0.000000 0.000000
										CHANNELS 3 Xrotation Yrotation Zrotation
										JOINT RightHandIndex3
										{
											OFFSET -7.512344 0.000000 0.000000
											CHANNELS 3 Xrotation Yrotation Zrotation
											JOINT RightHandIndex4
											{
												OFFSET -10.212402 0.000000 0.000001
												CHANNELS 3 Xrotation Yrotation Zrotation
												End Site
												{
													OFFSET 5.180801 8.690506 1.388433
												}
											}
										}
									}
								}
								JOINT RightHandMiddle1
								{
									OFFSET -23.373947 0.000000 0.000001
									CHANNELS 3 Xrotation Yrotation Zrotation
									JOINT RightHandMiddle2
									{
										OFFSET -6.996567 0.000000 0.000000
										CHANNELS 3 Xrotation Yrotation Zrotation
										JOINT RightHandMiddle3
										{
											OFFSET -7.015945 0.000000 0.000000
											CHANNELS 3 Xrotation Yrotation Zrotation
											JOINT RightHandMiddle4
											{
												OFFSET -7.721573 0.000000 0.000000
												CHANNELS 3 Xrotation Yrotation Zrotation
												End Site
												{
													OFFSET 4.651108 6.158463 0.251582
												}
											}
										}
									}
								}
								JOINT RightHandRing1
								{
									OFFSET -22.726120 -0.094986 -6.500475
									CHANNELS 3 Xrotation Yrotation Zrotation
									JOINT RightHandRing2
									{
										OFFSET -6.408615 0.000000 0.000000
										CHANNELS 3 Xrotation Yrotation Zrotation
										JOINT RightHandRing3
										{
											OFFSET -6.150223 0.000000 0.000000
											CHANNELS 3 Xrotation Yrotation Zrotation
											JOINT RightHandRing4
											{
												OFFSET -6.145386 0.000000 0.000000
												CHANNELS 3 Xrotation Yrotation Zrotation
												End Site
												{
													OFFSET 3.671402 4.923981 -0.202372
												}
											}
										}
									}
								}
								JOINT RightHandPinky1
								{
									OFFSET -18.920792 -0.453171 -11.426712
									CHANNELS 3 Xrotation Yrotation Zrotation
									JOINT RightHandPinky2
									{
										OFFSET -4.919586 0.000000 0.000000
										CHANNELS 3 Xrotation Yrotation Zrotation
										JOINT RightHandPinky3
										{
											OFFSET -5.233047 0.000000 0.000000
											CHANNELS 3 Xrotation Yrotation Zrotation
											JOINT RightHandPinky4
											{
												OFFSET -5.571716 0.000000 0.000000
												CHANNELS 3 Xrotation Yrotation Zrotation
												End Site
												{
													OFFSET 3.459808 4.342407 -0.466164
												}
											}
										}
									}
								}
							}
						}
					}
				}
			}
		}
	}
	JOINT LeftUpLeg
	{
		OFFSET 19.899099 -7.885101 -3.429500
		CHANNELS 3 Xrotation Yrotation Zrotation
		JOINT LeftLeg
		{
			OFFSET 1.745560 -36.997807 10.304700
			CHANNELS 3 Xrotation Yrotation Zrotation
			JOINT LeftFoot
			{
				OFFSET -1.745558 -29.803308 -13.615400
				CHANNELS 3 Xrotation Yrotation Zrotation
				JOINT LeftToeBase
				{
					OFFSET 1.181900 -18.539904 15.226099
					CHANNELS 3 Xrotation Yrotation Zrotation
					JOINT LeftToe_End
					{
						OFFSET -0.863701 1.402801 16.534700
						CHANNELS 3 Xrotation Yrotation Zrotation
						End Site
						{
							OFFSET 0.000000 16.616566 0.000000
						}
					}
				}
			}
		}
	}
	JOINT RightUpLeg
	{
		OFFSET -19.899099 -7.885101 -3.429500
		CHANNELS 3 Xrotation Yrotation Zrotation
		JOINT RightLeg
		{
			OFFSET -1.745560 -36.997807 10.304700
			CHANNELS 3 Xrotation Yrotation Zrotation
			JOINT RightFoot
			{
				OFFSET 1.745558 -29.803308 -13.615400
				CHANNELS 3 Xrotation Yrotation Zrotation
				JOINT RightToeBase
				{
					OFFSET -1.181900 -18.539904 15.226099
					CHANNELS 3 Xrotation Yrotation Zrotation
					JOINT RightToe_End
					{
						OFFSET 0.863701 1.402801 16.534700
						CHANNELS 3 Xrotation Yrotation Zrotation
						End Site
						{
							OFFSET 0.000000 16.616566 0.000000
						}
					}
				}
			}
		}
	}
}
MOTION
Frames: 4
Frame Time: 0.033333
-0.861645 69.595886 5.080326 30.326579 -16.823130 15.728765 23.202359 3.011123 -0.549724 14.477749 0.203042 -0.237791 13.764990 0.192736 -0.187593 -18.894175 -43.985971 1.612440 1.307737 -22.236760 25.201808 -0.000000 0.000001 0.000002 -1.496155 -14.254241 15.140871 -1.241714 -7.479684 -70.640910 -0.582666 -28.043915 -1.332002 -19.075071 -17.071037 -20.936982 -9.331542 3.471377 -7.771915 -3.526440 5.992587 -11.731706 -5.298480 -23.916415 0.005860 -0.000001 0.000001 -0.000001 0.000691 20.812464 -16.406956 -0.017047 -0.031993 -51.783858 -0.978634 -1.238075 -38.752683 0.000001 0.000000 -0.000006 3.582715 12.303621 -16.370761 -0.016410 -0.033063 -52.623527 0.347378 0.430504 -37.464711 -0.000001 0.000001 0.000002 -0.428354 -3.917209 -6.247917 -0.001101 -0.009774 -15.259828 0.000001 -0.003318 -5.335872 0.000001 0.000000 0.000004 2.950626 -12.213416 7.303433 -0.001899 -0.013117 -14.886845 0.118741 1.823911 -2.114281 -0.000003 0.000003 0.000001 -13.977307 -0.189636 -12.783478 -63.688072 -5.529929 46.865527 -3.020890 68.915181 3.295553 55.419250 21.145501 -46.217677 -4.453613 -7.293475 20.381119 0.000589 -8.684426 0.000695 0.008989 -20.048048 0.012248 -0.000000 0.000001 0.000001 -0.000517 -0.006689 -8.932503 -0.000526 0.007208 6.265813 0.110600 -1.827335 1.855355 -0.000001 -0.000003 -0.000002 -0.000043 0.002630 3.005837 -0.000326 0.004840 6.344395 -0.000157 0.002580 4.029543 0.000000 0.000001 -0.000006 2.546341 -5.987578 23.063911 -0.002735 0.015391 21.773014 -0.003958 0.018288 25.630963 -0.000000 -0.000000 -0.000003 8.673206 -16.457436 33.264534 -0.008749 0.026291 37.071542 -0.018898 0.034395 59.657891 -0.000000 -0.000000 0.000002 -77.865488 -2.134984 6.347886 72.619364 23.597107 1.737839 2.421881 1.387516 -1.373617 -9.152290 3.287534 -18.867767 0.000000 0.000000 0.000000 -57.241927 3.237519 -5.030185 76.938768 -7.802291 0.814050 -38.381988 -3.632906 3.389587 -13.788649 -3.113932 3.168458 -0.000000 -0.000001 -0.000000 
-0.906281 68.256210 -0.160286 31.261530 -17.206269 14.567842 22.605293 3.811530 0.185824 14.155719 0.304417 -0.003067 13.443342 0.243390 0.059524 -19.629909 -43.929752 0.785096 2.123212 -22.308342 25.610090 0.000003 -0.000000 -0.000001 -1.528878 -14.195071 14.986564 -1.122635 -7.649243 -70.455587 2.500970 -27.511428 0.571018 -19.094113 -17.469419 -21.062898 -9.331544 3.471386 -7.771909 -3.526440 5.992587 -11.731706 -5.298479 -23.916415 0.005861 0.000001 0.000001 -0.000001 0.000696 20.812464 -16.406960 -0.017045 -0.031991 -51.783858 -0.978635 -1.238074 -38.752680 0.000005 0.000001 0.000001 3.582717 12.303618 -16.370754 -0.016417 -0.033070 -52.623520 0.347371 0.430507 -37.464711 0.000001 0.000000 0.000003 -0.428359 -3.917208 -6.247913 -0.001103 -0.009771 -15.259836 -0.000003 -0.003318 -5.335875 0.000005 0.000001 0.000002 2.950631 -12.213416 7.303434 -0.001901 -0.013110 -14.886848 0.118738 1.823911 -2.114286 -0.000003 0.000001 0.000001 -13.972445 -0.032899 -12.671667 -63.477688 -5.537621 47.939281 -1.684167 68.817578 2.220428 55.047875 21.359605 -45.415304 -4.453612 -7.293476 20.381115 0.000589 -8.684425 0.000697 0.008993 -20.048050 0.012251 0.000001 0.000000 0.000002 -0.000514 -0.006685 -8.932502 -0.000526 0.007206 6.265810 0.110598 -1.827335 1.855357 -0.000001 -0.000003 0.000003 -0.000043 0.002632 3.005839 -0.000326 0.004838 6.344385 -0.000159 0.002580 4.029547 0.000000 0.000001 0.000001 2.546342 -5.987579 23.063910 -0.002734 0.015389 21.773014 -0.003958 0.018289 25.630959 0.000000 -0.000001 -0.000005 8.673208 -16.457435 33.264538 -0.008749 0.026293 37.071538 -0.018900 0.034395 59.657891 0.000001 -0.000000 0.000002 -73.659786 0.509514 7.942739 82.478393 20.578887 -0.240622 4.051182 0.498459 0.716783 -20.445003 10.290832 -24.983393 -0.000000 0.000002 -0.000000 -64.874974 0.391482 -2.588667 77.931222 -7.144984 1.971875 -34.411343 -1.716450 0.144779 -12.231380 -3.149800 2.043479 -0.000000 0.000000 -0.000000 
-1.032211 67.164833 -5.508083 32.270827 -17.475037 13.353436 21.927165 4.419345 1.022780 13.755117 0.456549 0.353607 13.043596 0.370363 0.424999 -20.287730 -43.951004 0.233552 2.473835 -22.276515 25.354111 0.000001 0.000002 0.000001 -1.542205 -14.165398 14.924380 -0.953492 -7.872868 -70.720653 5.642938 -27.063892 2.538249 -19.221728 -17.729144 -21.477876 -9.331541 3.471389 -7.771909 -3.526438 5.992586 -11.731705 -5.298478 -23.916408 0.005857 -0.000003 0.000001 -0.000001 0.000699 20.812469 -16.406953 -0.017047 -0.031997 -51.783858 -0.978633 -1.238075 -38.752673 -0.000000 0.000001 -0.000004 3.582716 12.303625 -16.370753 -0.016412 -0.033062 -52.623524 0.347379 0.430504 -37.464718 -0.000007 -0.000001 0.000007 -0.428357 -3.917211 -6.247915 -0.001107 -0.009769 -15.259831 -0.000002 -0.003316 -5.335877 0.000001 -0.000000 0.000001 2.950629 -12.213418 7.303430 -0.001899 -0.013116 -14.886843 0.118742 1.823909 -2.114289 -0.000003 0.000003 0.000002 -13.972450 0.101159 -12.661400 -63.615023 -5.356274 48.648801 -0.673075 68.748969 1.408698 54.859864 21.369492 -45.066927 -4.453610 -7.293474 20.381117 0.000587 -8.684426 0.000697 0.008992 -20.048045 0.012249 -0.000000 -0.000001 -0.000000 -0.000514 -0.006684 -8.932503 -0.000523 0.007208 6.265812 0.110600 -1.827336 1.855357 0.000002 -0.000003 -0.000002 -0.000041 0.002633 3.005836 -0.000326 0.004841 6.344391 -0.000157 0.002581 4.029549 0.000001 0.000000 -0.000004 2.546343 -5.987578 23.063913 -0.002735 0.015390 21.773012 -0.003958 0.018289 25.630956 -0.000000 -0.000000 -0.000005 8.673204 -16.457433 33.264538 -0.008748 0.026290 37.071545 -0.018896 0.034395 59.657884 0.000000 -0.000000 0.000002 -67.040192 4.268185 8.953564 89.545447 17.252856 -1.540060 2.402339 0.720233 -0.292800 -23.969594 12.473138 -25.571094 0.000001 0.000000 0.000000 -72.339770 -2.659375 -0.133152 77.502197 -7.496303 2.941554 -28.531703 0.002580 -3.231598 -11.255012 -3.411795 1.297252 -0.000000 -0.000000 0.000000 
-1.146544 66.206512 -10.933372 33.135570 -17.438496 12.103030 21.240495 4.695667 1.987112 13.329918 0.562776 0.793901 12.614412 0.473482 0.862475 -20.751535 -44.021935 -0.139793 2.466350 -22.207554 24.652098 -0.000001 0.000000 -0.000000 -1.536629 -14.166776 14.952846 -0.542379 -8.199224 -71.425822 8.765501 -26.692128 4.498952 -19.266666 -17.692850 -21.603933 -9.331546 3.471387 -7.771904 -3.526445 5.992590 -11.731704 -5.298477 -23.916421 0.005860 0.000002 -0.000002 0.000000 0.000696 20.812471 -16.406953 -0.017047 -0.031988 -51.783858 -0.978638 -1.238075 -38.752680 0.000001 0.000000 -0.000002 3.582715 12.303621 -16.370758 -0.016419 -0.033060 -52.623527 0.347371 0.430502 -37.464718 -0.000003 0.000003 0.000005 -0.428358 -3.917214 -6.247910 -0.001104 -0.009768 -15.259833 -0.000001 -0.003317 -5.335875 0.000000 0.000002 0.000007 2.950627 -12.213414 7.303434 -0.001899 -0.013114 -14.886841 0.118736 1.823912 -2.114280 -0.000000 0.000003 -0.000001 -13.976535 0.212986 -12.746424 -64.076341 -5.042072 49.070101 0.493450 68.659732 0.469928 54.769231 21.013376 -45.121261 -4.453615 -7.293477 20.381110 0.000588 -8.684421 0.000697 0.008992 -20.048050 0.012249 -0.000000 -0.000004 -0.000000 -0.000518 -0.006689 -8.932500 -0.000528 0.007207 6.265807 0.110597 -1.827334 1.855353 0.000000 -0.000003 -0.000004 -0.000044 0.002629 3.005837 -0.000326 0.004842 6.344391 -0.000158 0.002579 4.029548 -0.000000 0.000001 -0.000004 2.546339 -5.987578 23.063908 -0.002735 0.015389 21.773011 -0.003958 0.018289 25.630958 -0.000001 -0.000000 -0.000005 8.673201 -16.457433 33.264531 -0.008748 0.026292 37.071545 -0.018896 0.034395 59.657891 -0.000001 -0.000000 0.000002 -57.916070 8.586161 9.232117 91.874391 13.202242 -2.713314 1.340531 1.043033 -2.531502 -20.897823 6.945648 -16.298979 -0.000005 0.000002 -0.000000 -79.121690 -5.523721 2.069195 75.907178 -8.933842 3.749286 -21.751350 1.344970 -6.737382 -10.601178 -3.772853 1.122344 0.000000 0.000001 0.000000 
